<?xml version="1.0" ?><svg style="enable-background:new 0 0 48 48;" version="1.1" viewBox="0 0 48 48" xml:space="preserve" xmlns="http://www.w3.org/2000/svg" xmlns:xlink="http://www.w3.org/1999/xlink"><g id="Icons"><g id="Icons_32_"><g><radialGradient cx="24" cy="-322" gradientTransform="matrix(1 0 0 -1 0 -298)" gradientUnits="userSpaceOnUse" id="SVGID_1_" r="13.49502"><stop offset="0.09184" style="stop-color:#FAF707"/><stop offset="0.72959" style="stop-color:#FFFC00"/></radialGradient><path d="M30.375,10.50495h-12.75c-3.93,0-7.12,3.2-7.12,7.12v12.75     c0,3.9301,3.19,7.1201,7.12,7.1201h12.75c3.93,0,7.12-3.19,7.12-7.1201v-12.75C37.495,13.70495,34.305,10.50495,30.375,10.50495z      M31.145,32.13495c-1.7899-0.5899-3.21-0.1499-4.5399,0.8601c-0.7801,0.6-1.6101,0.92-2.4601,0.92c-0.8499,0-1.69-0.32-2.46-0.92     c-1.3399-1.01-2.75-1.45-4.54-0.8601c0.0201-2.0799-2.0399-1.2799-3.0499-2.2699c2.01-0.62,3.39-1.8001,4.2899-3.5401     c0.6601-1.2799,0.4101-1.8499-0.93-2.3999c-0.46-0.18-0.89-0.41-1.33-0.63c0.0401-0.14,0.07-0.28,0.12-0.4201     c0.45,0.0701,0.9101,0.1201,1.3601,0.2001c1.0099,0.1799,1.35-0.1,1.2799-1.09c-0.0399-0.56-0.07-1.12-0.0999-1.68     c-0.1001-2.1101,0.6699-3.81,2.5799-4.78c0.9201-0.4601,1.8501-0.7101,2.7801-0.72c0.9299,0.0099,1.8599,0.2599,2.7799,0.72     c1.9101,0.97,2.6701,2.6699,2.58,4.78c-0.0299,0.56-0.07,1.12-0.1099,1.68c-0.06,0.99,0.2799,1.2699,1.2899,1.09     c0.45-0.08,0.9101-0.13,1.3601-0.2001c0.04,0.1401,0.0799,0.2801,0.12,0.4201c-0.44,0.22-0.87,0.45-1.33,0.63     c-1.35,0.55-1.5901,1.12-0.93,2.3999c0.8999,1.74,2.2799,2.9201,4.2899,3.5401C33.185,30.85505,31.125,30.05505,31.145,32.13495z     " style="fill:url(#SVGID_1_);"/></g></g></g></svg>