<?xml version="1.0" ?><svg height="32" id="svg17515" version="1.1" viewBox="0 0 32 32.000001" width="32" xmlns="http://www.w3.org/2000/svg" xmlns:cc="http://creativecommons.org/ns#" xmlns:dc="http://purl.org/dc/elements/1.1/" xmlns:inkscape="http://www.inkscape.org/namespaces/inkscape" xmlns:rdf="http://www.w3.org/1999/02/22-rdf-syntax-ns#" xmlns:sodipodi="http://sodipodi.sourceforge.net/DTD/sodipodi-0.dtd" xmlns:svg="http://www.w3.org/2000/svg"><defs id="defs17517"><clipPath clipPathUnits="userSpaceOnUse" id="clipPath32617-9-8-8-9"><circle cx="-64.623535" cy="50.047192" id="path32619-2-3-5-1" r="38.553814" style="fill:#4bb7c0;fill-opacity:1;stroke:none" transform="matrix(9.3443438,0,0,9.3443438,-627.91229,-5859.5225)"/></clipPath><clipPath clipPathUnits="userSpaceOnUse" id="clipPath19550"><circle cx="-64.623535" cy="50.047192" id="circle19552" r="38.553814" style="fill:#4bb7c0;fill-opacity:1;stroke:none" transform="matrix(9.3443438,0,0,9.3443438,-627.91229,-5859.5225)"/></clipPath></defs><g id="layer1" transform="translate(0,-1020.3622)"><g id="g42361" style="display:inline" transform="translate(566.61684,81.608739)"><path d="m -546.22508,958.60175 c -0.74162,0.5314 -2.03337,0.7643 -2.79167,0.043 -0.7583,-0.7208 -0.77505,-1.8645 -0.15698,-2.4613 0.95717,-0.924 3.99193,-0.6981 4.30572,-1.8354 0,0 -0.11369,3.3624 -1.35707,4.2532 z" id="path44296" style="opacity:1;fill:#88b03c;fill-opacity:1;stroke:none;stroke-width:0.99999988;stroke-linecap:round;stroke-linejoin:round;stroke-miterlimit:4;stroke-dasharray:none;stroke-dashoffset:0;stroke-opacity:1"/><path d="m -549.32617,-63.992188 c -0.45006,0.626164 -0.37801,1.622747 0.30859,2.275391 0.0844,0.08032 0.17922,0.14361 0.27539,0.201172 0.0104,-0.209606 0.0102,-0.420202 -0.0137,-0.636719 -0.0644,-0.584628 -0.29313,-1.219771 -0.57031,-1.839844 z" id="path42347" style="color:#000000;font-style:normal;font-variant:normal;font-weight:normal;font-stretch:normal;font-size:medium;line-height:normal;font-family:sans-serif;text-indent:0;text-align:start;text-decoration:none;text-decoration-line:none;text-decoration-style:solid;text-decoration-color:#000000;letter-spacing:normal;word-spacing:normal;text-transform:none;direction:ltr;writing-mode:lr-tb;baseline-shift:baseline;text-anchor:start;white-space:normal;clip-rule:nonzero;display:inline;overflow:visible;visibility:visible;opacity:1;isolation:auto;mix-blend-mode:normal;color-interpolation:sRGB;color-interpolation-filters:linearRGB;solid-color:#000000;solid-opacity:1;fill:#81a53c;fill-opacity:1;fill-rule:evenodd;stroke:none;stroke-width:1px;stroke-linecap:round;stroke-linejoin:round;stroke-miterlimit:4;stroke-dasharray:none;stroke-dashoffset:0;stroke-opacity:1;color-rendering:auto;image-rendering:auto;shape-rendering:auto;text-rendering:auto;enable-background:accumulate" transform="translate(0,1020.3622)"/><path d="m -554.01093,963.10175 c 0.74162,0.5314 2.03337,0.7643 2.79167,0.043 0.7583,-0.7208 0.77505,-1.8645 0.15698,-2.4613 -0.95717,-0.924 -3.99193,-0.6981 -4.30572,-1.8354 0,0 0.11369,3.3624 1.35707,4.2532 z" id="path10629" style="opacity:1;fill:#88b03c;fill-opacity:1;stroke:none;stroke-width:0.99999988;stroke-linecap:round;stroke-linejoin:round;stroke-miterlimit:4;stroke-dasharray:none;stroke-dashoffset:0;stroke-opacity:1"/><path d="m -550.76172,-59.232422 c -0.0452,0.112943 -0.0866,0.221662 -0.13281,0.335938 -0.25058,0.620062 -0.49905,1.266554 -0.69336,1.93164 0.13109,-0.06688 0.25766,-0.145916 0.36914,-0.251953 0.59765,-0.568097 0.72839,-1.39693 0.45703,-2.015625 z" id="path42339" style="color:#000000;font-style:normal;font-variant:normal;font-weight:normal;font-stretch:normal;font-size:medium;line-height:normal;font-family:sans-serif;text-indent:0;text-align:start;text-decoration:none;text-decoration-line:none;text-decoration-style:solid;text-decoration-color:#000000;letter-spacing:normal;word-spacing:normal;text-transform:none;direction:ltr;writing-mode:lr-tb;baseline-shift:baseline;text-anchor:start;white-space:normal;clip-rule:nonzero;display:inline;overflow:visible;visibility:visible;opacity:1;isolation:auto;mix-blend-mode:normal;color-interpolation:sRGB;color-interpolation-filters:linearRGB;solid-color:#000000;solid-opacity:1;fill:#81a53c;fill-opacity:1;fill-rule:evenodd;stroke:none;stroke-width:1px;stroke-linecap:round;stroke-linejoin:round;stroke-miterlimit:4;stroke-dasharray:none;stroke-dashoffset:0;stroke-opacity:1;color-rendering:auto;image-rendering:auto;shape-rendering:auto;text-rendering:auto;enable-background:accumulate" transform="translate(0,1020.3622)"/><path d="m -551.65705,953.24795 a 0.50005,0.50005 0 0 0 -0.40625,0.7871 c 0,0 0.47735,0.7083 0.97851,1.6231 0.50117,0.9148 1.00916,2.0594 1.08399,2.7383 0.10047,0.9113 -0.2861,1.8892 -0.71289,2.9453 -0.42679,1.0561 -0.89496,2.1969 -0.69336,3.4433 0.13918,0.8606 0.70705,1.7447 1.22461,2.4824 0.51755,0.7378 1.00586,1.3008 1.00586,1.3008 a 0.50005,0.50005 0 1 0 0.7539,-0.6562 c 0,0 -0.45673,-0.5279 -0.9414,-1.2188 -0.48467,-0.6908 -0.97447,-1.5723 -1.05469,-2.0683 -0.14531,-0.8984 0.20864,-1.8606 0.63281,-2.9102 0.42417,-1.0496 0.91689,-2.1796 0.7793,-3.4277 -0.1101,-0.9988 -0.67587,-2.1505 -1.20117,-3.1094 -0.5253,-0.9588 -1.02735,-1.7031 -1.02735,-1.7031 a 0.50005,0.50005 0 0 0 -0.42187,-0.2266 z" id="path10627" style="color:#000000;font-style:normal;font-variant:normal;font-weight:normal;font-stretch:normal;font-size:medium;line-height:normal;font-family:sans-serif;text-indent:0;text-align:start;text-decoration:none;text-decoration-line:none;text-decoration-style:solid;text-decoration-color:#000000;letter-spacing:normal;word-spacing:normal;text-transform:none;direction:ltr;writing-mode:lr-tb;baseline-shift:baseline;text-anchor:start;white-space:normal;clip-rule:nonzero;display:inline;overflow:visible;visibility:visible;opacity:1;isolation:auto;mix-blend-mode:normal;color-interpolation:sRGB;color-interpolation-filters:linearRGB;solid-color:#000000;solid-opacity:1;fill:#8ba753;fill-opacity:1;fill-rule:evenodd;stroke:none;stroke-width:1px;stroke-linecap:round;stroke-linejoin:round;stroke-miterlimit:4;stroke-dasharray:none;stroke-dashoffset:0;stroke-opacity:1;color-rendering:auto;image-rendering:auto;shape-rendering:auto;text-rendering:auto;enable-background:accumulate"/><path d="m -551.65625,953.24892 a 0.50005,0.50005 0 0 0 -0.40625,0.78516 c 0,0 0.13359,0.20287 0.32812,0.51562 0.0418,0.003 0.081,0.0156 0.12305,0.0176 0.33904,0 0.67011,-0.035 0.99219,-0.0937 -0.33448,-0.56019 -0.61524,-0.99805 -0.61524,-0.99805 a 0.50005,0.50005 0 0 0 -0.42187,-0.22656 z" id="path42295" style="opacity:1;fill:#839d51;fill-opacity:1;fill-rule:evenodd;stroke:none;stroke-width:1px;stroke-linecap:butt;stroke-linejoin:round;stroke-opacity:1"/><path d="m -551.61133,940.59853 -3.25,3.25 2.62695,2.62305 3.63477,-2.59571 z" id="path44280" style="fill:#e79983;fill-opacity:1;fill-rule:evenodd;stroke:none;stroke-width:1px;stroke-linecap:butt;stroke-linejoin:round;stroke-opacity:1"/><path d="m -551.65625,953.24892 a 0.50005,0.50005 0 0 0 -0.40625,0.78516 c 0,0 0.13359,0.20287 0.32812,0.51562 0.0418,0.003 0.081,0.0156 0.12305,0.0176 0.33904,0 0.67011,-0.035 0.99219,-0.0937 -0.33448,-0.56019 -0.61524,-0.99805 -0.61524,-0.99805 a 0.50005,0.50005 0 0 0 -0.42187,-0.22656 z" id="path42315" style="opacity:1;fill:#839d51;fill-opacity:1;fill-rule:evenodd;stroke:none;stroke-width:1px;stroke-linecap:butt;stroke-linejoin:round;stroke-opacity:1"/><path d="m -556.61133,942.09853 0,6.5 c -0.0148,0.32296 2.4e-4,0.6466 0.0449,0.9668 l 0.041,-0.0293 -0.0234,0.0195 -0.0176,0.0117 c 0.3459,2.50611 2.42811,4.41022 4.95508,4.53125 3.03757,0 5.5,-2.46243 5.5,-5.5 l 0,-6.5 -6.12305,4.37305 z" id="path44276" style="fill:#ff766c;fill-opacity:1;fill-rule:evenodd;stroke:none;stroke-width:1px;stroke-linecap:butt;stroke-linejoin:round;stroke-opacity:1"/></g></g></svg>