<?xml version="1.0" ?><!DOCTYPE svg  PUBLIC '-//W3C//DTD SVG 1.1//EN'  'http://www.w3.org/Graphics/SVG/1.1/DTD/svg11.dtd'><svg enable-background="new 0 0 128 128" id="Layer_1" version="1.1" viewBox="0 0 128 128" xml:space="preserve" xmlns="http://www.w3.org/2000/svg" xmlns:xlink="http://www.w3.org/1999/xlink"><path d="M96,112H38.9c-2.2,0-3.9-2.1-3.9-4.2V40.8c0-1.1,0.8-1.8,1.9-1.8h61c1.1,0,2.1,0.7,2.1,1.8v66.9  C100,109.9,98.2,112,96,112z" fill="#E2E2E2"/><path d="M84.2,112c2.7,0,4.5-2.8,3.7-5.4c-2-6-4.9-11.7-9.9-16.3v0c-11-11.6-30-11.6-41,0v0  c-4,4.6-7.8,10.4-9.8,16.4c-0.9,2.6,1.1,5.4,3.8,5.4H84.2z" fill="#C1C1C0"/><path d="M88.1,112H31c-2.2,0-4-2.1-4-4.2V40.8c0-1.1,1-1.8,2.1-1.8h61c1.1,0,1.9,0.7,1.9,1.8v66.9  C92,109.9,90.3,112,88.1,112z" fill="#E2E2E2"/><path d="M88.1,112H31c-2.2,0-4-2.1-4-4.2V40.8  c0-1.1,1-1.8,2.1-1.8h61c1.1,0,1.9,0.7,1.9,1.8v66.9C92,109.9,90.3,112,88.1,112z" fill="none" stroke="#3D3D3D" stroke-miterlimit="10" stroke-width="2"/><path d="M94,112c2.7,0,4.6-2.8,3.8-5.4c-2-6-5.8-11.7-9.8-16.3v0c-11-11.6-30-11.6-41,0v0c-5,4.6-7.9,10.4-9.9,16.4  c-0.9,2.6,1,5.4,3.7,5.4H94z" fill="#C1C1C0"/><path d="M80,73L80,73c-11.2,11-29.7,11-40.9,0h0c-7.7-8-12-18.7-12-29.7v-2.5c0-1.1,1-1.8,2.1-1.8h61  c1.1,0,1.9,0.7,1.9,1.8v2.5C92,54.3,87.7,65,80,73z" fill="#DD3B86"/><path d="M80,73L80,73c-11.2,11-29.7,11-40.9,0h0  c-7.7-8-12-18.7-12-29.7v-2.5c0-1.1,1-1.8,2.1-1.8h61c1.1,0,1.9,0.7,1.9,1.8v2.5C92,54.3,87.7,65,80,73z" fill="none" stroke="#3D3D3D" stroke-miterlimit="10" stroke-width="2"/><path d="M96,112H38.9c-2.2,0-3.9-2.1-3.9-4.2V40.8  c0-1.1,0.8-1.8,1.9-1.8h61c1.1,0,2.1,0.7,2.1,1.8v66.9C100,109.9,98.2,112,96,112z" fill="none" stroke="#3D3D3D" stroke-miterlimit="10" stroke-width="2"/><path d="M88,73L88,73c-11.2,11-29.8,11-41,0h0c-7.7-8-12-18.7-12-29.7v-2.5c0-1.1,0.8-1.8,1.9-1.8h61  c1.1,0,2.1,0.7,2.1,1.8v2.5C100,54.3,95.7,65,88,73z" fill="#E875AE"/><path d="M88,73L88,73c-11.2,11-29.8,11-41,0h0  c-7.7-8-12-18.7-12-29.7v-2.5c0-1.1,0.8-1.8,1.9-1.8h61c1.1,0,2.1,0.7,2.1,1.8v2.5C100,54.3,95.7,65,88,73z" fill="none" stroke="#3D3D3D" stroke-miterlimit="10" stroke-width="2"/><line fill="none" stroke="#3D3D3D" stroke-miterlimit="10" stroke-width="2" x1="63" x2="63" y1="81" y2="59"/><line fill="none" stroke="#3D3D3D" stroke-miterlimit="10" stroke-width="2" x1="53" x2="53" y1="77" y2="55"/><line fill="none" stroke="#3D3D3D" stroke-miterlimit="10" stroke-width="2" x1="43" x2="43" y1="68" y2="47"/><line fill="none" stroke="#3D3D3D" stroke-miterlimit="10" stroke-width="2" x1="72" x2="72" y1="81" y2="59"/><line fill="none" stroke="#3D3D3D" stroke-miterlimit="10" stroke-width="2" x1="82" x2="82" y1="77" y2="55"/><line fill="none" stroke="#3D3D3D" stroke-miterlimit="10" stroke-width="2" x1="92" x2="92" y1="68" y2="47"/><rect fill="none" height="8" stroke="#3D3D3D" stroke-miterlimit="10" stroke-width="2" width="19" x="53" y="31"/><path d="M80,21.8c0-6-4.8-10.8-10.8-10.8H55.8c-6,0-10.8,4.8-10.8,10.8v0.3c0,6,4.8,10.8,10.8,10.8h13.3  c6,0,10.8-4.8,10.8-10.8V21.8z" fill="#FFFFFF"/><path d="M80,21.8c0-6-4.8-10.8-10.8-10.8H55.8  c-6,0-10.8,4.8-10.8,10.8v0.3c0,6,4.8,10.8,10.8,10.8h13.3c6,0,10.8-4.8,10.8-10.8V21.8z" fill="none" stroke="#3D3D3D" stroke-miterlimit="10" stroke-width="2"/><line fill="none" stroke="#3D3D3D" stroke-miterlimit="10" stroke-width="2" x1="60" x2="60" y1="33" y2="25"/><line fill="none" stroke="#3D3D3D" stroke-miterlimit="10" stroke-width="2" x1="65" x2="65" y1="33" y2="25"/><line fill="none" stroke="#3D3D3D" stroke-miterlimit="10" stroke-width="2" x1="55" x2="55" y1="33" y2="25"/><line fill="none" stroke="#3D3D3D" stroke-miterlimit="10" stroke-width="2" x1="50" x2="50" y1="31" y2="25"/><line fill="none" stroke="#3D3D3D" stroke-miterlimit="10" stroke-width="2" x1="70" x2="70" y1="32" y2="25"/><line fill="none" stroke="#3D3D3D" stroke-miterlimit="10" stroke-width="2" x1="75" x2="75" y1="31" y2="25"/></svg>